<svg width="49" height="40" viewBox="0 0 49 40" fill="none" xmlns="http://www.w3.org/2000/svg">
<path fill-rule="evenodd" clip-rule="evenodd" d="M28.0839 6.96794C28.1328 7.06673 28.1749 7.17316 28.2092 7.28615C30.2345 8.06186 31.7255 10.6289 31.7255 13.6679C31.7255 17.3192 29.5732 20.2899 26.9277 20.2899C25.5465 20.2899 24.3001 19.4799 23.4239 18.1864H20.0979C19.382 18.1864 18.7997 17.3826 18.7997 16.3946C18.7997 15.8271 18.9919 15.3208 19.2911 14.9922C18.9919 14.6637 18.7997 14.1574 18.7997 13.5899C18.7997 13.0225 18.9919 12.5162 19.2911 12.1877C18.9919 11.8591 18.7997 11.3528 18.7997 10.7853C18.7997 10.2179 18.9919 9.7116 19.2911 9.38302C18.9919 9.05449 18.7997 8.54818 18.7997 7.98076C18.7997 6.99276 19.382 6.18893 20.0979 6.18893H20.8339C20.6902 5.90058 20.6059 5.55176 20.6059 5.17614C20.6059 4.80052 20.6902 4.45169 20.8339 4.16337H18.5738C17.858 4.16337 17.2756 3.35954 17.2756 2.37154C17.2756 1.38354 17.858 0.579712 18.5738 0.579712H25.4884C26.2042 0.579712 26.7866 1.38354 26.7866 2.37154C26.7866 2.74716 26.7022 3.09598 26.5585 3.38431H28.8186C29.5344 3.38431 30.1168 4.18814 30.1168 5.17614C30.1168 6.16412 29.5344 6.96794 28.8186 6.96794H28.0839ZM29.5524 5.17614C29.5524 4.61771 29.2232 4.16337 28.8186 4.16337H21.9041C21.4995 4.16337 21.1703 4.61771 21.1703 5.17614C21.1703 5.73457 21.4995 6.18893 21.9041 6.18893H27.0123H28.8186C29.2232 6.18893 29.5524 5.73457 29.5524 5.17614ZM17.8401 2.37154C17.8401 2.92997 18.1692 3.38431 18.5738 3.38431H25.4884C25.893 3.38431 26.2221 2.92997 26.2221 2.37154C26.2221 1.81311 25.893 1.35877 25.4884 1.35877H18.5738C18.1692 1.35877 17.8401 1.81311 17.8401 2.37154ZM27.0123 6.96794H20.0979C19.6933 6.96794 19.3641 7.42232 19.3641 7.98076C19.3641 8.53919 19.6933 8.99351 20.0979 8.99351H23.5326C24.4017 7.79102 25.6028 7.04591 26.9277 7.04591C27.0641 7.04591 27.199 7.05426 27.3326 7.06974C27.2349 7.00441 27.126 6.96794 27.0123 6.96794ZM23.0504 9.77258H20.0979C19.6933 9.77258 19.3641 10.2269 19.3641 10.7853C19.3641 11.3438 19.6933 11.7981 20.0979 11.7981H22.325C22.4823 11.0617 22.73 10.3784 23.0504 9.77258ZM22.1954 12.5772H20.0979C19.6933 12.5772 19.3641 13.0315 19.3641 13.5899C19.3641 14.1484 19.6933 14.6027 20.0979 14.6027H22.178C22.1465 14.2972 22.1299 13.9852 22.1299 13.6679C22.1299 13.2964 22.1526 12.9321 22.1954 12.5772ZM19.3641 16.3946C19.3641 16.953 19.6933 17.4073 20.0979 17.4073H22.9703C22.6669 16.7976 22.4356 16.1146 22.2932 15.3817H20.0979C19.6933 15.3817 19.3641 15.8361 19.3641 16.3946ZM22.6943 13.6679C22.6943 16.8897 24.5935 19.5108 26.9277 19.5108C29.262 19.5108 31.1611 16.8897 31.1611 13.6679C31.1611 10.4461 29.262 7.82499 26.9277 7.82499C24.5935 7.82499 22.6943 10.4461 22.6943 13.6679ZM26.2078 12.3363C26.2078 12.8097 26.5301 13.1947 26.9263 13.1947C27.6827 13.1947 28.2981 13.9842 28.2981 14.9547C28.2981 15.7808 27.8522 16.4754 27.253 16.6639V16.8586C27.253 17.1075 27.1067 17.3095 26.9263 17.3095C26.746 17.3095 26.5998 17.1075 26.5998 16.8586V16.6639C26.0005 16.4754 25.5546 15.7808 25.5546 14.9547C25.5546 14.7058 25.7009 14.5039 25.8812 14.5039C26.0616 14.5039 26.2078 14.7058 26.2078 14.9547C26.2078 15.4281 26.5301 15.8131 26.9263 15.8131C27.3226 15.8131 27.6449 15.4281 27.6449 14.9547C27.6449 14.4814 27.3226 14.0963 26.9263 14.0963C26.17 14.0963 25.5546 13.3068 25.5546 12.3363C25.5546 11.5103 26.0005 10.8157 26.5998 10.6272V10.3928C26.5998 10.1438 26.746 9.94197 26.9263 9.94197C27.1067 9.94197 27.253 10.1438 27.253 10.3928V10.6272C27.8522 10.8157 28.2981 11.5103 28.2981 12.3363C28.2981 12.5853 28.1519 12.7872 27.9715 12.7872C27.7912 12.7872 27.6449 12.5853 27.6449 12.3363C27.6449 11.863 27.3226 11.478 26.9263 11.478C26.5301 11.478 26.2078 11.863 26.2078 12.3363Z" fill="#FF872C"/>
<path d="M28.2093 7.28615L28.1155 7.3436L28.1351 7.40783L28.1827 7.42603L28.2093 7.28615ZM28.0839 6.96794V6.82302H27.8872L28.0004 7.05142L28.0839 6.96794ZM23.4239 18.1864L23.4975 18.0859L23.4674 18.0415H23.4239V18.1864ZM19.2912 14.9922L19.3536 15.1069L19.458 14.9922L19.3536 14.8776L19.2912 14.9922ZM19.2912 12.1877L19.3536 12.3023L19.458 12.1877L19.3536 12.073L19.2912 12.1877ZM19.2912 9.38302L19.3536 9.49768L19.458 9.38302L19.3536 9.26841L19.2912 9.38302ZM20.8339 6.18893V6.33386H21.0312L20.9173 6.10522L20.8339 6.18893ZM20.8339 4.16337L20.9173 4.24707L21.0312 4.01844H20.8339V4.16337ZM26.5586 3.38431L26.4753 3.30061L26.3613 3.52924H26.5586V3.38431ZM23.5326 8.99351V9.13844H23.5741L23.6039 9.09728L23.5326 8.99351ZM27.3326 7.06974L27.3243 7.21415L27.3761 6.93861L27.3326 7.06974ZM23.0504 9.77258L23.132 9.85959L23.2547 9.62765H23.0504V9.77258ZM22.325 11.7981V11.943H22.4007L22.4227 11.8402L22.325 11.7981ZM22.1954 12.5772L22.296 12.6016L22.3164 12.4322H22.1954V12.5772ZM22.178 14.6027V14.7477H22.296L22.279 14.5818L22.178 14.6027ZM22.9704 17.4073V17.5522H23.1674L23.0537 17.3237L22.9704 17.4073ZM22.2932 15.3817L22.3916 15.3432L22.3709 15.2368H22.2932V15.3817ZM27.253 16.6639L27.2309 16.5224L27.1509 16.5475V16.6639H27.253ZM26.5998 16.6639H26.7019V16.5475L26.6219 16.5224L26.5998 16.6639ZM26.5998 10.6272L26.6219 10.7687L26.7019 10.7435V10.6272H26.5998ZM27.253 10.6272H27.1509V10.7435L27.2309 10.7687L27.253 10.6272ZM28.303 7.2287C28.2659 7.10661 28.2203 6.99142 28.1673 6.88452L28.0004 7.05142C28.0453 7.14197 28.084 7.23977 28.1155 7.3436L28.303 7.2287ZM31.8276 13.6679C31.8276 10.5591 30.3027 7.93786 28.2359 7.1462L28.1827 7.42603C30.1664 8.18586 31.6235 10.6987 31.6235 13.6679H31.8276ZM26.9278 20.4348C29.6269 20.4348 31.8276 17.4031 31.8276 13.6679H31.6235C31.6235 17.2354 29.5196 20.1449 26.9278 20.1449V20.4348ZM23.3503 18.2868C24.2452 19.6079 25.518 20.4348 26.9278 20.4348V20.1449C25.5751 20.1449 24.355 19.3518 23.4975 18.0859L23.3503 18.2868ZM20.0979 18.3313H23.4239V18.0415H20.0979V18.3313ZM18.6976 16.3946C18.6976 17.4664 19.3284 18.3313 20.0979 18.3313V18.0415C19.4357 18.0415 18.9018 17.2987 18.9018 16.3946H18.6976ZM19.2287 14.8776C18.9063 15.2317 18.6976 15.7792 18.6976 16.3946H18.9018C18.9018 15.875 19.0777 15.4099 19.3536 15.1069L19.2287 14.8776ZM18.6976 13.5899C18.6976 14.2053 18.9063 14.7528 19.2287 15.1069L19.3536 14.8776C19.0777 14.5746 18.9018 14.1095 18.9018 13.5899H18.6976ZM19.2287 12.073C18.9063 12.4271 18.6976 12.9746 18.6976 13.5899H18.9018C18.9018 13.0704 19.0777 12.6053 19.3536 12.3023L19.2287 12.073ZM18.6976 10.7853C18.6976 11.4006 18.9063 11.9482 19.2287 12.3023L19.3536 12.073C19.0777 11.77 18.9018 11.3049 18.9018 10.7853H18.6976ZM19.2287 9.26841C18.9063 9.62244 18.6976 10.17 18.6976 10.7853H18.9018C18.9018 10.2658 19.0777 9.8007 19.3536 9.49768L19.2287 9.26841ZM18.6976 7.98075C18.6976 8.59606 18.9063 9.14359 19.2287 9.49768L19.3536 9.26841C19.0777 8.96539 18.9018 8.50029 18.9018 7.98075H18.6976ZM20.0979 6.044C19.3284 6.044 18.6976 6.90887 18.6976 7.98075H18.9018C18.9018 7.07658 19.4357 6.33386 20.0979 6.33386V6.044ZM20.8339 6.044H20.0979V6.33386H20.8339V6.044ZM20.5038 5.17614C20.5038 5.58314 20.5953 5.96099 20.7506 6.27264L20.9173 6.10522C20.7852 5.84017 20.708 5.52038 20.708 5.17614H20.5038ZM20.7506 4.07966C20.5953 4.39129 20.5038 4.76913 20.5038 5.17614H20.708C20.708 4.83191 20.7852 4.5121 20.9173 4.24707L20.7506 4.07966ZM18.5739 4.3083H20.8339V4.01844H18.5739V4.3083ZM17.1736 2.37154C17.1736 3.4434 17.8044 4.3083 18.5739 4.3083V4.01844C17.9117 4.01844 17.3778 3.27567 17.3778 2.37154H17.1736ZM18.5739 0.434784C17.8044 0.434784 17.1736 1.29967 17.1736 2.37154H17.3778C17.3778 1.46741 17.9117 0.724639 18.5739 0.724639V0.434784ZM25.4884 0.434784H18.5739V0.724639H25.4884V0.434784ZM26.8887 2.37154C26.8887 1.29967 26.2579 0.434784 25.4884 0.434784V0.724639C26.1505 0.724639 26.6845 1.46741 26.6845 2.37154H26.8887ZM26.6419 3.46801C26.7972 3.15638 26.8887 2.77855 26.8887 2.37154H26.6845C26.6845 2.71577 26.6073 3.03558 26.4753 3.30061L26.6419 3.46801ZM28.8186 3.23939H26.5586V3.52924H28.8186V3.23939ZM30.2189 5.17614C30.2189 4.10427 29.5881 3.23939 28.8186 3.23939V3.52924C29.4808 3.52924 30.0148 4.27201 30.0148 5.17614H30.2189ZM28.8186 7.11287C29.5881 7.11287 30.2189 6.248 30.2189 5.17614H30.0148C30.0148 6.08029 29.4808 6.82302 28.8186 6.82302V7.11287ZM28.0839 7.11287H28.8186V6.82302H28.0839V7.11287ZM28.8186 4.3083C29.1696 4.3083 29.4503 4.70158 29.4503 5.17614H29.6545C29.6545 4.53385 29.2769 4.01844 28.8186 4.01844V4.3083ZM21.9041 4.3083H28.8186V4.01844H21.9041V4.3083ZM21.2724 5.17614C21.2724 4.70158 21.5532 4.3083 21.9041 4.3083V4.01844C21.4459 4.01844 21.0683 4.53385 21.0683 5.17614H21.2724ZM21.9041 6.044C21.5532 6.044 21.2724 5.6507 21.2724 5.17614H21.0683C21.0683 5.81844 21.4459 6.33386 21.9041 6.33386V6.044ZM27.0124 6.044H21.9041V6.33386H27.0124V6.044ZM28.8186 6.044H27.0124V6.33386H28.8186V6.044ZM29.4503 5.17614C29.4503 5.6507 29.1696 6.044 28.8186 6.044V6.33386C29.2769 6.33386 29.6545 5.81844 29.6545 5.17614H29.4503ZM18.5739 3.23939C18.2229 3.23939 17.9422 2.8461 17.9422 2.37154H17.738C17.738 3.01383 18.1156 3.52924 18.5739 3.52924V3.23939ZM25.4884 3.23939H18.5739V3.52924H25.4884V3.23939ZM26.1201 2.37154C26.1201 2.8461 25.8394 3.23939 25.4884 3.23939V3.52924C25.9467 3.52924 26.3243 3.01383 26.3243 2.37154H26.1201ZM25.4884 1.50369C25.8394 1.50369 26.1201 1.89698 26.1201 2.37154H26.3243C26.3243 1.72925 25.9467 1.21384 25.4884 1.21384V1.50369ZM18.5739 1.50369H25.4884V1.21384H18.5739V1.50369ZM17.9422 2.37154C17.9422 1.89698 18.2229 1.50369 18.5739 1.50369V1.21384C18.1156 1.21384 17.738 1.72925 17.738 2.37154H17.9422ZM20.0979 7.11287H27.0124V6.82302H20.0979V7.11287ZM19.4662 7.98075C19.4662 7.5062 19.7469 7.11287 20.0979 7.11287V6.82302C19.6397 6.82302 19.262 7.33844 19.262 7.98075H19.4662ZM20.0979 8.84858C19.7469 8.84858 19.4662 8.45531 19.4662 7.98075H19.262C19.262 8.62302 19.6397 9.13844 20.0979 9.13844V8.84858ZM23.5326 8.84858H20.0979V9.13844H23.5326V8.84858ZM26.9278 6.90099C25.5755 6.90099 24.349 7.66162 23.4614 8.88974L23.6039 9.09728C24.4544 7.92046 25.6302 7.19084 26.9278 7.19084V6.90099ZM27.3409 6.92528C27.2048 6.90951 27.0671 6.90099 26.9278 6.90099V7.19084C27.0612 7.19084 27.1934 7.19902 27.3243 7.21415L27.3409 6.92528ZM27.0124 7.11287C27.1106 7.11287 27.2047 7.14441 27.2891 7.20081L27.3761 6.93861C27.2652 6.86446 27.1415 6.82302 27.0124 6.82302V7.11287ZM20.0979 9.91751H23.0504V9.62765H20.0979V9.91751ZM19.4662 10.7853C19.4662 10.3108 19.7469 9.91751 20.0979 9.91751V9.62765C19.6396 9.62765 19.262 10.1431 19.262 10.7853H19.4662ZM20.0979 11.6532C19.7469 11.6532 19.4662 11.2599 19.4662 10.7853H19.262C19.262 11.4277 19.6396 11.943 20.0979 11.943V11.6532ZM22.325 11.6532H20.0979V11.943H22.325V11.6532ZM22.9687 9.68557C22.6414 10.3045 22.3882 11.003 22.2273 11.7561L22.4227 11.8402C22.5764 11.1204 22.8186 10.4522 23.132 9.85959L22.9687 9.68557ZM20.0979 12.7221H22.1954V12.4322H20.0979V12.7221ZM19.4662 13.5899C19.4662 13.1154 19.7469 12.7221 20.0979 12.7221V12.4322C19.6396 12.4322 19.262 12.9476 19.262 13.5899H19.4662ZM20.0979 14.4578C19.7469 14.4578 19.4662 14.0645 19.4662 13.5899H19.262C19.262 14.2323 19.6396 14.7477 20.0979 14.7477V14.4578ZM22.178 14.4578H20.0979V14.7477H22.178V14.4578ZM22.0279 13.6679C22.0279 13.9924 22.0449 14.3114 22.077 14.6237L22.279 14.5818C22.2483 14.283 22.232 13.978 22.232 13.6679H22.0279ZM22.0948 12.5527C22.051 12.9156 22.0279 13.288 22.0279 13.6679H22.232C22.232 13.3048 22.2541 12.9487 22.296 12.6016L22.0948 12.5527ZM20.0979 17.2624C19.7469 17.2624 19.4662 16.8692 19.4662 16.3946H19.262C19.262 17.0369 19.6396 17.5522 20.0979 17.5522V17.2624ZM22.9704 17.2624H20.0979V17.5522H22.9704V17.2624ZM22.1948 15.4203C22.3404 16.1697 22.577 16.8679 22.887 17.4909L23.0537 17.3237C22.757 16.7272 22.5308 16.0595 22.3916 15.3432L22.1948 15.4203ZM20.0979 15.5267H22.2932V15.2368H20.0979V15.5267ZM19.4662 16.3946C19.4662 15.9199 19.7469 15.5267 20.0979 15.5267V15.2368C19.6396 15.2368 19.262 15.7522 19.262 16.3946H19.4662ZM26.9278 19.3659C24.6471 19.3659 22.7965 16.8058 22.7965 13.6679H22.5923C22.5923 16.9736 24.5398 19.6557 26.9278 19.6557V19.3659ZM31.059 13.6679C31.059 16.8058 29.2084 19.3659 26.9278 19.3659V19.6557C29.3157 19.6557 31.2632 16.9736 31.2632 13.6679H31.059ZM26.9278 7.96991C29.2084 7.96991 31.059 10.53 31.059 13.6679H31.2632C31.2632 10.3622 29.3157 7.68006 26.9278 7.68006V7.96991ZM22.7965 13.6679C22.7965 10.53 24.6471 7.96991 26.9278 7.96991V7.68006C24.5398 7.68006 22.5923 10.3622 22.5923 13.6679H22.7965ZM26.9264 13.0498C26.5693 13.0498 26.3099 12.7072 26.3099 12.3363H26.1058C26.1058 12.9121 26.491 13.3397 26.9264 13.3397V13.0498ZM28.4003 14.9547C28.4003 13.8907 27.7292 13.0498 26.9264 13.0498V13.3397C27.6364 13.3397 28.1961 14.0777 28.1961 14.9547H28.4003ZM27.2751 16.8054C27.913 16.6047 28.4003 15.8597 28.4003 14.9547H28.1961C28.1961 15.7019 27.7914 16.3461 27.2309 16.5224L27.2751 16.8054ZM27.3551 16.8586V16.6639H27.1509V16.8586H27.3551ZM26.9264 17.4544C27.1604 17.4544 27.3551 17.1914 27.3551 16.8586H27.1509C27.1509 17.0237 27.0531 17.1645 26.9264 17.1645V17.4544ZM26.4977 16.8586C26.4977 17.1914 26.6924 17.4544 26.9264 17.4544V17.1645C26.7997 17.1645 26.7019 17.0237 26.7019 16.8586H26.4977ZM26.4977 16.6639V16.8586H26.7019V16.6639H26.4977ZM25.4525 14.9547C25.4525 15.8597 25.9398 16.6047 26.5777 16.8054L26.6219 16.5224C26.0614 16.3461 25.6567 15.7019 25.6567 14.9547H25.4525ZM25.8812 14.359C25.6472 14.359 25.4525 14.6219 25.4525 14.9547H25.6567C25.6567 14.7896 25.7545 14.6489 25.8812 14.6489V14.359ZM26.3099 14.9547C26.3099 14.6219 26.1152 14.359 25.8812 14.359V14.6489C26.008 14.6489 26.1058 14.7896 26.1058 14.9547H26.3099ZM26.9264 15.6682C26.5693 15.6682 26.3099 15.3256 26.3099 14.9547H26.1058C26.1058 15.5305 26.491 15.958 26.9264 15.958V15.6682ZM27.5428 14.9547C27.5428 15.3256 27.2835 15.6682 26.9264 15.6682V15.958C27.3618 15.958 27.747 15.5305 27.747 14.9547H27.5428ZM26.9264 14.2412C27.2835 14.2412 27.5428 14.5838 27.5428 14.9547H27.747C27.747 14.3789 27.3618 13.9514 26.9264 13.9514V14.2412ZM25.4525 12.3363C25.4525 13.4003 26.1236 14.2412 26.9264 14.2412V13.9514C26.2164 13.9514 25.6567 13.2133 25.6567 12.3363H25.4525ZM26.5777 10.4857C25.9398 10.6864 25.4525 11.4314 25.4525 12.3363H25.6567C25.6567 11.5893 26.0614 10.945 26.6219 10.7687L26.5777 10.4857ZM26.4977 10.3928V10.6272H26.7019V10.3928H26.4977ZM26.9264 9.79704C26.6924 9.79704 26.4977 10.0599 26.4977 10.3928H26.7019C26.7019 10.2277 26.7997 10.0869 26.9264 10.0869V9.79704ZM27.3551 10.3928C27.3551 10.0599 27.1604 9.79704 26.9264 9.79704V10.0869C27.0531 10.0869 27.1509 10.2277 27.1509 10.3928H27.3551ZM27.3551 10.6272V10.3928H27.1509V10.6272H27.3551ZM28.4003 12.3363C28.4003 11.4314 27.913 10.6864 27.2751 10.4857L27.2309 10.7687C27.7914 10.945 28.1961 11.5893 28.1961 12.3363H28.4003ZM27.9715 12.9321C28.2056 12.9321 28.4003 12.6692 28.4003 12.3363H28.1961C28.1961 12.5014 28.0983 12.6423 27.9715 12.6423V12.9321ZM27.5428 12.3363C27.5428 12.6692 27.7375 12.9321 27.9715 12.9321V12.6423C27.8448 12.6423 27.747 12.5014 27.747 12.3363H27.5428ZM26.9264 11.6229C27.2835 11.6229 27.5428 11.9655 27.5428 12.3363H27.747C27.747 11.7606 27.3618 11.333 26.9264 11.333V11.6229ZM26.3099 12.3363C26.3099 11.9655 26.5693 11.6229 26.9264 11.6229V11.333C26.491 11.333 26.1058 11.7606 26.1058 12.3363H26.3099Z" fill="#FF872C"/>
<path d="M0 33.4276C0 35.4739 0.990906 36.8582 2.27996 36.8582C3.15687 36.8582 3.77947 36.2202 4.06885 35.51V36.8943C4.06885 38.3027 3.42871 39.049 2.57811 39.049C1.78889 39.049 1.2189 38.5073 1.04352 37.7129H0.254303C0.412147 39.1212 1.31536 39.9999 2.57811 39.9999C3.98993 39.9999 4.87558 38.7119 4.87558 36.8943V30.1535H4.06885V31.3572C3.78823 30.647 3.15687 30.0452 2.27996 30.0452C0.990906 30.0452 0 31.3692 0 33.4276ZM4.06885 33.4397C4.06885 34.9925 3.31471 35.8953 2.4378 35.8953C1.56089 35.8953 0.815523 34.9804 0.815523 33.4276C0.815523 31.8748 1.56089 30.9961 2.4378 30.9961C3.31471 30.9961 4.06885 31.9109 4.06885 33.4397Z" fill="white"/>
<path d="M10.784 33.4397C10.784 31.3572 9.72298 30.0452 8.35498 30.0452C6.9958 30.0452 5.92596 31.3572 5.92596 33.4397C5.92596 35.5341 6.96072 36.8582 8.3199 36.8582C9.6879 36.8582 10.784 35.5341 10.784 33.4397ZM6.74149 33.4397C6.74149 31.7785 7.50438 30.9961 8.34624 30.9961C9.1705 30.9961 9.96851 31.7785 9.96851 33.4397C9.96851 35.1128 9.15298 35.8952 8.3199 35.8952C7.48686 35.8952 6.74149 35.1128 6.74149 33.4397Z" fill="white"/>
<path d="M12.2922 36.75H13.3006V31.2369H14.1951V30.1174H13.3006V29.648C13.3006 28.8896 13.5111 28.6008 14.1249 28.6008V27.4572C12.8622 27.4572 12.2922 28.1192 12.2922 29.648V30.1174H11.7222V31.2369H12.2922V36.75Z" fill="white"/>
<path d="M15.081 36.75H16.0807V30.1174H15.081V36.75ZM15.5896 29.2387C15.9404 29.2387 16.221 28.8535 16.221 28.36C16.221 27.8665 15.9404 27.4813 15.5896 27.4813C15.2301 27.4813 14.9495 27.8665 14.9495 28.36C14.9495 28.8535 15.2301 29.2387 15.5896 29.2387Z" fill="white"/>
<path d="M20.8219 36.75H21.8128V32.8379C21.8128 30.9841 20.9622 30.0091 19.831 30.0091C19.2522 30.0091 18.7173 30.3341 18.3928 30.8758V30.1174H17.3932V36.75H18.3928V33.0425C18.3928 31.8267 18.8752 31.2008 19.6117 31.2008C20.3396 31.2008 20.8219 31.8267 20.8219 33.0425V36.75Z" fill="white"/>
<path d="M22.7546 33.4036C22.7546 35.45 23.7631 36.8583 25.0171 36.8583C25.8238 36.8583 26.4026 36.3287 26.7095 35.7629V36.75H27.7179V30.1174H26.7095V31.0804C26.4113 30.5387 25.8501 30.0091 25.0346 30.0091C23.7631 30.0091 22.7546 31.3573 22.7546 33.4036ZM26.7095 33.4277C26.7095 34.8601 25.9992 35.6666 25.2451 35.6666C24.4997 35.6666 23.7806 34.8361 23.7806 33.4036C23.7806 31.9712 24.4997 31.2008 25.2451 31.2008C25.9992 31.2008 26.7095 32.0073 26.7095 33.4277Z" fill="white"/>
<path d="M32.4597 36.75H33.4506V32.8379C33.4506 30.9841 32.6 30.0091 31.4688 30.0091C30.8901 30.0091 30.3552 30.3341 30.0307 30.8758V30.1174H29.031V36.75H30.0307V33.0425C30.0307 31.8267 30.513 31.2008 31.2496 31.2008C31.9774 31.2008 32.4597 31.8267 32.4597 33.0425V36.75Z" fill="white"/>
<path d="M34.3925 33.4277C34.3925 35.5101 35.3746 36.8583 36.7602 36.8583C37.944 36.8583 38.7157 35.9555 38.9875 34.6555H37.9089C37.7248 35.3416 37.3565 35.7027 36.7602 35.7027C35.9534 35.7027 35.4185 34.8842 35.4185 33.4277C35.4185 31.9832 35.9534 31.1647 36.7602 31.1647C37.3565 31.1647 37.7423 31.574 37.9089 32.2119H38.9875C38.7157 30.8156 37.944 30.0091 36.7602 30.0091C35.3746 30.0091 34.3925 31.3573 34.3925 33.4277Z" fill="white"/>
<path d="M42.0183 31.1647C42.7635 31.1647 43.3511 31.8147 43.3687 32.8379H40.6941C40.7993 31.7906 41.343 31.1647 42.0183 31.1647ZM44.2805 34.7759H43.2021C43.0179 35.2935 42.6758 35.7027 42.062 35.7027C41.3254 35.7027 40.7554 35.0407 40.6853 33.9453H44.3773C44.4034 33.7166 44.412 33.4999 44.412 33.2712C44.412 31.3212 43.4389 30.0091 42.062 30.0091C40.6327 30.0091 39.6506 31.3452 39.6506 33.4277C39.6506 35.5101 40.6766 36.8583 42.062 36.8583C43.2458 36.8583 44.009 35.9314 44.2805 34.7759Z" fill="white"/>
<path d="M49 34.8962C48.9473 32.5008 46.2201 33.2471 46.2201 31.911C46.2201 31.4656 46.501 31.1647 47.0359 31.1647C47.5794 31.1647 47.904 31.5619 47.9388 32.1397H48.9388C48.8861 30.8156 48.167 30.0091 47.0706 30.0091C45.931 30.0091 45.2119 30.8638 45.2119 31.923C45.2119 34.3546 48.018 33.6082 48.018 34.9083C48.018 35.3657 47.7109 35.7027 47.1323 35.7027C46.5798 35.7027 46.2025 35.2573 46.1674 34.7157H45.1327C45.1768 35.9194 45.9922 36.8583 47.1499 36.8583C48.2899 36.8583 49 36.0157 49 34.8962Z" fill="white"/>
</svg>
